<?xml version="1.0" standalone="no"?><!DOCTYPE svg PUBLIC "-//W3C//DTD SVG 1.1//EN" "http://www.w3.org/Graphics/SVG/1.1/DTD/svg11.dtd"><svg t="1510536503984" class="icon" style="" viewBox="0 0 1024 1024" version="1.1" xmlns="http://www.w3.org/2000/svg" p-id="2119" xmlns:xlink="http://www.w3.org/1999/xlink" width="81" height="81"><defs><style type="text/css"></style></defs><path d="M512 985.6C250.85952 985.6 38.4 773.14048 38.4 512S250.85952 38.4 512 38.4 985.6 250.85952 985.6 512 773.14048 985.6 512 985.6M512 0C229.23264 0 0 229.23264 0 512s229.23264 512 512 512 512-229.23264 512-512S794.76736 0 512 0z m234.27072 493.93664l-366.6944-184.40192a21.7088 21.7088 0 0 0-31.41632 19.51744v365.89568a21.7088 21.7088 0 0 0 31.41632 19.53792l366.6944-184.40192a19.968 19.968 0 0 0 0-36.1472z" p-id="2120" fill="#0081dc"></path></svg>